<svg width="414" height="736" viewBox="0 0 414 736" fill="none" xmlns="http://www.w3.org/2000/svg">
<rect width="414" height="736" fill="#E5E5E5"/>
<rect width="414" height="736" fill="white"/>
<g clip-path="url(#clip0)">
<path d="M178.933 270.583C171.011 267.183 165.73 255.945 164.079 250.75V235.167L172.744 218.167L191.311 209.667H212.354L230.921 225.25V250.75L222.256 270.583L203.689 279.083L178.933 270.583Z" fill="#FF8947" stroke="#ED0000"/>
<path d="M197.5 170C156.15 170 122.511 203.805 122.511 245.359C122.511 259.038 128.616 273.751 128.872 274.372C130.843 279.075 134.734 286.38 137.54 290.662L188.956 368.951C191.06 372.16 194.174 374 197.5 374C200.826 374 203.94 372.16 206.044 368.955L257.465 290.662C260.275 286.38 264.161 279.075 266.133 274.372C266.388 273.755 272.489 259.043 272.489 245.359C272.489 203.805 238.85 170 197.5 170ZM257.998 270.932C256.238 275.147 252.617 281.943 250.098 285.782L198.678 364.075C197.663 365.622 197.341 365.622 196.327 364.075L144.906 285.782C142.387 281.943 138.766 275.143 137.006 270.927C136.931 270.745 131.333 257.203 131.333 245.359C131.333 208.694 161.016 178.866 197.5 178.866C233.984 178.866 263.667 208.694 263.667 245.359C263.667 257.221 258.056 270.799 257.998 270.932Z" fill="#0F0F0F"/>
<path d="M197.5 205.467C175.608 205.467 157.8 223.367 157.8 245.363C157.8 267.359 175.608 285.259 197.5 285.259C219.392 285.259 237.2 267.359 237.2 245.363C237.2 223.367 219.392 205.467 197.5 205.467ZM197.5 276.393C180.477 276.393 166.622 262.474 166.622 245.363C166.622 228.252 180.477 214.333 197.5 214.333C214.522 214.333 228.378 228.252 228.378 245.363C228.378 262.474 214.522 276.393 197.5 276.393Z" fill="#0F0F0F"/>
<ellipse cx="197.5" cy="244.375" rx="39.6098" ry="43.2083" fill="#FF8947"/>
<path d="M123 374H196.006H274.033" stroke="black" stroke-width="5"/>
</g>
<defs>
<clipPath id="clip0">
<rect width="203" height="204" fill="white" transform="translate(96 170)"/>
</clipPath>
</defs>
</svg>
